<?xml version="1.0" standalone="no"?>
<!DOCTYPE svg PUBLIC "-//W3C//DTD SVG 20010904//EN"
 "http://www.w3.org/TR/2001/REC-SVG-20010904/DTD/svg10.dtd">
<svg version="1.0" xmlns="http://www.w3.org/2000/svg"
 width="256.000000pt" height="256.000000pt" viewBox="0 0 256.000000 256.000000"
 preserveAspectRatio="xMidYMid meet">

<g transform="translate(0.000000,256.000000) scale(0.100000,-0.100000)"
fill="#000000" stroke="none">
<path d="M1 2108 c1 -267 5 -426 9 -388 19 160 79 280 200 401 71 71 102 94
181 133 129 63 199 80 334 79 202 -1 361 -64 508 -201 l47 -45 48 45 c146 137
305 200 507 201 134 1 205 -16 335 -79 79 -39 109 -61 180 -133 119 -119 182
-244 200 -399 4 -41 8 109 9 386 l1 452 -1280 0 -1280 0 1 -452z"/>
<path d="M1801 2131 c-24 -24 -26 -40 -7 -66 10 -13 33 -21 85 -26 167 -18
305 -128 353 -281 21 -69 23 -129 6 -209 -14 -67 -3 -89 43 -89 39 0 56 30 70
121 10 61 9 87 -4 150 -47 231 -222 387 -465 415 -53 6 -62 4 -81 -15z"/>
<path d="M1 818 l-1 -818 1280 0 1280 0 -1 818 c-1 449 -5 787 -9 751 -17
-140 -92 -336 -185 -481 -203 -314 -573 -656 -860 -794 -126 -61 -198 -78
-274 -64 -335 61 -905 570 -1113 995 -49 100 -97 255 -108 343 -4 37 -8 -298
-9 -750z"/>
</g>
</svg>
