<?xml version="1.0" standalone="no"?>
<!DOCTYPE svg PUBLIC "-//W3C//DTD SVG 20010904//EN"
 "http://www.w3.org/TR/2001/REC-SVG-20010904/DTD/svg10.dtd">
<svg version="1.0" xmlns="http://www.w3.org/2000/svg"
 width="256.000000pt" height="256.000000pt" viewBox="0 0 256.000000 256.000000"
 preserveAspectRatio="xMidYMid meet">

<g transform="translate(0.000000,256.000000) scale(0.100000,-0.100000)"
fill="#000000" stroke="none">
<path d="M1 2103 c1 -252 4 -448 6 -436 6 31 50 63 87 63 26 0 49 -20 168
-142 76 -79 140 -153 144 -165 13 -49 -29 -103 -82 -103 -28 0 -49 18 -165
135 -74 75 -139 148 -146 163 -10 21 -12 -145 -13 -795 l0 -823 1280 0 1280 0
0 823 c-1 650 -3 816 -13 795 -7 -15 -72 -88 -146 -163 -111 -113 -138 -135
-163 -135 -16 0 -37 4 -47 10 -24 12 -45 64 -37 92 3 13 68 87 144 166 119
122 142 142 168 142 37 0 81 -32 87 -63 2 -12 5 184 6 436 l1 457 -1280 0
-1280 0 1 -457z m1078 63 c19 -20 27 -54 52 -213 16 -103 29 -191 29 -195 0
-3 -12 -20 -26 -37 -30 -37 -79 -42 -114 -13 -20 16 -27 43 -51 198 -16 98
-29 192 -29 207 0 67 92 103 139 53z m516 -1 c14 -13 25 -32 25 -42 0 -10 -12
-100 -27 -201 -23 -154 -31 -188 -50 -208 -33 -36 -84 -33 -117 7 -14 17 -26
34 -26 37 0 4 13 92 29 195 25 159 33 193 52 213 31 33 82 32 114 -1z m-1021
-147 c31 -28 186 -339 186 -373 0 -29 -37 -73 -65 -76 -11 -2 -33 0 -48 4 -24
7 -40 32 -118 189 -97 197 -101 213 -53 256 14 12 36 22 49 22 13 0 35 -10 49
-22z m1510 0 c48 -43 44 -59 -53 -256 -78 -157 -94 -182 -118 -189 -15 -4 -37
-6 -48 -4 -28 3 -65 47 -65 76 0 34 155 345 186 373 14 12 36 22 49 22 13 0
35 -10 49 -22z m-599 -464 c242 -46 502 -190 708 -392 85 -84 157 -172 157
-192 0 -38 -179 -224 -313 -324 -485 -366 -1018 -368 -1505 -7 -138 102 -322
292 -322 331 0 42 210 255 346 352 299 214 611 292 929 232z"/>
<path d="M944 1392 c-101 -36 -215 -96 -318 -170 -88 -63 -266 -230 -266 -249
0 -21 176 -187 267 -252 115 -82 283 -164 408 -198 87 -24 118 -27 245 -27
127 0 158 3 245 27 130 35 315 128 430 214 95 72 245 216 245 236 0 20 -182
189 -276 256 -87 61 -260 152 -318 167 l-29 7 26 -34 c14 -19 39 -62 54 -94
25 -53 28 -71 28 -160 0 -92 -3 -106 -32 -167 -151 -320 -584 -326 -740 -11
-35 70 -38 83 -38 162 0 94 0 95 61 70 98 -39 212 76 174 176 -14 38 -49 75
-69 75 -9 0 -52 -13 -97 -28z"/>
</g>
</svg>
